<?xml version="1.0" encoding="utf-8"?>
<!-- Generator: Adobe Illustrator 24.0.0, SVG Export Plug-In . SVG Version: 6.00 Build 0)  -->
<svg version="1.1" id="Layer_1" xmlns="http://www.w3.org/2000/svg" xmlns:xlink="http://www.w3.org/1999/xlink" x="0px" y="0px"
	 viewBox="0 0 100 98.4" style="enable-background:new 0 0 100 98.4;" xml:space="preserve">
<style type="text/css">
	.st0{fill:#3B97D5;}
	.st1{fill:#F2A92E;}
	.st2{fill:#B26600;}
	.st3{fill:#526D7B;}
	.st4{fill:#556D7B;}
	.st5{fill:#36383A;}
	.st6{fill:#FFFFFF;}
</style>
<title>CT-logo</title>
<g>
	<circle class="st0" cx="32.9" cy="5.9" r="5.9"/>
	<circle class="st0" cx="24" cy="78.5" r="5.9"/>
	<circle class="st1" cx="94.1" cy="32.2" r="5.9"/>
	<circle class="st1" cx="27.3" cy="42.5" r="27.3"/>
	<circle class="st1" cx="65.8" cy="65.2" r="33.2"/>
	<circle class="st0" cx="60.7" cy="25.8" r="23.7"/>
	<path class="st2" d="M32.6,65.2c0,1.4,0.1,2.7,0.2,4.1c12.4-2.6,21.7-13.5,21.7-26.7c0-2.8-0.4-5.5-1.2-8.1
		C41.2,39.3,32.6,51.3,32.6,65.2z"/>
	<path class="st3" d="M82,36.2c-12.8-7.2-28.7-5.2-39.3,5c8.5,9.9,23.5,11.1,33.5,2.6C78.6,41.7,80.6,39.1,82,36.2z"/>
	<path class="st4" d="M38.4,17.6c-1,2.6-1.4,5.4-1.4,8.1c0,10.7,7.1,19.8,16.9,22.7c0.4-2,0.7-4,0.7-6
		C54.5,31.4,47.9,21.9,38.4,17.6z"/>
	<path class="st5" d="M32.6,16.2h39.4c4,0,7.3,3.3,7.3,7.3v39.4c0,4-3.3,7.3-7.3,7.3H32.6c-4,0-7.3-3.3-7.3-7.3V23.5
		C25.4,19.5,28.6,16.2,32.6,16.2z"/>
	<path class="st6" d="M42.3,26.3c2,0,3.8,0.3,5.2,0.9c1.4,0.6,2.8,1.4,3.9,2.5L48.1,34c-0.8-0.7-1.6-1.3-2.6-1.7
		c-1-0.4-2-0.6-3.1-0.6c-1.2,0-2.3,0.4-3.2,1.1c-1,0.7-1.8,1.9-2.4,3.5c-0.6,1.6-0.9,3.7-0.9,6.2c0,2.5,0.3,4.5,0.8,6.1
		c0.6,1.6,1.3,2.7,2.3,3.5c1,0.7,2.2,1.1,3.4,1.1c1.4,0,2.6-0.3,3.5-0.9c0.9-0.6,1.8-1.2,2.6-1.9l3,4.3c-1.1,1.2-2.5,2.2-3.9,3
		c-1.6,0.8-3.4,1.2-5.6,1.2c-2.6,0-4.8-0.6-6.8-1.9c-2-1.2-3.5-3.1-4.7-5.5c-1.1-2.4-1.7-5.4-1.7-9c0-3.5,0.6-6.4,1.7-8.8
		c1.2-2.4,2.7-4.3,4.8-5.5C37.5,26.9,39.8,26.3,42.3,26.3z"/>
	<path class="st6" d="M67.1,32.7v25.4h-6.7V32.7h-7.9V27h22.9l-0.7,5.6L67.1,32.7z"/>
</g>
</svg>
